<svg height="1742" width="720" xmlns="http://www.w3.org/2000/svg">
<rect height="1742" fill="#555" width="720"></rect>
<text fill="#7f7" font-family="Courier New" font-size="12" xml:space="preserve">
<tspan x="10" y="26">18 megabytes installed</tspan>
<tspan x="10" y="42"></tspan>
<tspan x="10" y="58">node_modules</tspan>
<tspan x="10" y="74">└─┬ babel-plugin-istanbul@4.1.1 </tspan>
<tspan x="10" y="90">  ├─┬ find-up@2.1.0 </tspan>
<tspan x="10" y="106">  │ └─┬ locate-path@2.0.0 </tspan>
<tspan x="10" y="122">  │   ├─┬ p-locate@2.0.0 </tspan>
<tspan x="10" y="138">  │   │ └── p-limit@1.1.0 </tspan>
<tspan x="10" y="154">  │   └── path-exists@3.0.0 </tspan>
<tspan x="10" y="170">  ├─┬ istanbul-lib-instrument@1.7.0 </tspan>
<tspan x="10" y="186">  │ ├─┬ babel-generator@6.24.1 </tspan>
<tspan x="10" y="202">  │ │ ├── babel-messages@6.23.0 </tspan>
<tspan x="10" y="218">  │ │ ├─┬ babel-runtime@6.23.0 </tspan>
<tspan x="10" y="234">  │ │ │ ├── core-js@2.4.1 </tspan>
<tspan x="10" y="250">  │ │ │ └── regenerator-runtime@0.10.3 </tspan>
<tspan x="10" y="266">  │ │ ├─┬ detect-indent@4.0.0 </tspan>
<tspan x="10" y="282">  │ │ │ └─┬ repeating@2.0.1 </tspan>
<tspan x="10" y="298">  │ │ │   └─┬ is-finite@1.0.2 </tspan>
<tspan x="10" y="314">  │ │ │     └── number-is-nan@1.0.1 </tspan>
<tspan x="10" y="330">  │ │ ├── jsesc@1.3.0 </tspan>
<tspan x="10" y="346">  │ │ ├── lodash@4.17.4 </tspan>
<tspan x="10" y="362">  │ │ ├── source-map@0.5.6 </tspan>
<tspan x="10" y="378">  │ │ └── trim-right@1.0.1 </tspan>
<tspan x="10" y="394">  │ ├── babel-template@6.24.1 </tspan>
<tspan x="10" y="410">  │ ├─┬ babel-traverse@6.24.1 </tspan>
<tspan x="10" y="426">  │ │ ├─┬ babel-code-frame@6.22.0 </tspan>
<tspan x="10" y="442">  │ │ │ ├─┬ chalk@1.1.3 </tspan>
<tspan x="10" y="458">  │ │ │ │ ├── ansi-styles@2.2.1 </tspan>
<tspan x="10" y="474">  │ │ │ │ ├── escape-string-regexp@1.0.5 </tspan>
<tspan x="10" y="490">  │ │ │ │ ├─┬ has-ansi@2.0.0 </tspan>
<tspan x="10" y="506">  │ │ │ │ │ └── ansi-regex@2.1.1 </tspan>
<tspan x="10" y="522">  │ │ │ │ ├── strip-ansi@3.0.1 </tspan>
<tspan x="10" y="538">  │ │ │ │ └── supports-color@2.0.0 </tspan>
<tspan x="10" y="554">  │ │ │ └── js-tokens@3.0.1 </tspan>
<tspan x="10" y="570">  │ │ ├─┬ debug@2.6.4 </tspan>
<tspan x="10" y="586">  │ │ │ └── ms@0.7.3 </tspan>
<tspan x="10" y="602">  │ │ ├── globals@9.17.0 </tspan>
<tspan x="10" y="618">  │ │ └─┬ invariant@2.2.2 </tspan>
<tspan x="10" y="634">  │ │   └── loose-envify@1.3.1 </tspan>
<tspan x="10" y="650">  │ ├─┬ babel-types@6.24.1 </tspan>
<tspan x="10" y="666">  │ │ ├── esutils@2.0.2 </tspan>
<tspan x="10" y="682">  │ │ └── to-fast-properties@1.0.2 </tspan>
<tspan x="10" y="698">  │ ├── babylon@6.17.0 </tspan>
<tspan x="10" y="714">  │ ├── istanbul-lib-coverage@1.0.2 </tspan>
<tspan x="10" y="730">  │ └── semver@5.3.0 </tspan>
<tspan x="10" y="746">  └─┬ test-exclude@4.0.3 </tspan>
<tspan x="10" y="762">    ├── arrify@1.0.1 </tspan>
<tspan x="10" y="778">    ├─┬ micromatch@2.3.11 </tspan>
<tspan x="10" y="794">    │ ├─┬ arr-diff@2.0.0 </tspan>
<tspan x="10" y="810">    │ │ └── arr-flatten@1.0.3 </tspan>
<tspan x="10" y="826">    │ ├── array-unique@0.2.1 </tspan>
<tspan x="10" y="842">    │ ├─┬ braces@1.8.5 </tspan>
<tspan x="10" y="858">    │ │ ├─┬ expand-range@1.8.2 </tspan>
<tspan x="10" y="874">    │ │ │ └─┬ fill-range@2.2.3 </tspan>
<tspan x="10" y="890">    │ │ │   ├── is-number@2.1.0 </tspan>
<tspan x="10" y="906">    │ │ │   ├─┬ isobject@2.1.0 </tspan>
<tspan x="10" y="922">    │ │ │   │ └── isarray@1.0.0 </tspan>
<tspan x="10" y="938">    │ │ │   ├── randomatic@1.1.6 </tspan>
<tspan x="10" y="954">    │ │ │   └── repeat-string@1.6.1 </tspan>
<tspan x="10" y="970">    │ │ ├── preserve@0.2.0 </tspan>
<tspan x="10" y="986">    │ │ └── repeat-element@1.1.2 </tspan>
<tspan x="10" y="1002">    │ ├─┬ expand-brackets@0.1.5 </tspan>
<tspan x="10" y="1018">    │ │ └── is-posix-bracket@0.1.1 </tspan>
<tspan x="10" y="1034">    │ ├── extglob@0.3.2 </tspan>
<tspan x="10" y="1050">    │ ├── filename-regex@2.0.0 </tspan>
<tspan x="10" y="1066">    │ ├── is-extglob@1.0.0 </tspan>
<tspan x="10" y="1082">    │ ├── is-glob@2.0.1 </tspan>
<tspan x="10" y="1098">    │ ├─┬ kind-of@3.1.0 </tspan>
<tspan x="10" y="1114">    │ │ └── is-buffer@1.1.5 </tspan>
<tspan x="10" y="1130">    │ ├─┬ normalize-path@2.1.1 </tspan>
<tspan x="10" y="1146">    │ │ └── remove-trailing-separator@1.0.1 </tspan>
<tspan x="10" y="1162">    │ ├─┬ object.omit@2.0.1 </tspan>
<tspan x="10" y="1178">    │ │ ├─┬ for-own@0.1.5 </tspan>
<tspan x="10" y="1194">    │ │ │ └── for-in@1.0.2 </tspan>
<tspan x="10" y="1210">    │ │ └── is-extendable@0.1.1 </tspan>
<tspan x="10" y="1226">    │ ├─┬ parse-glob@3.0.4 </tspan>
<tspan x="10" y="1242">    │ │ ├─┬ glob-base@0.3.0 </tspan>
<tspan x="10" y="1258">    │ │ │ └── glob-parent@2.0.0 </tspan>
<tspan x="10" y="1274">    │ │ └── is-dotfile@1.0.2 </tspan>
<tspan x="10" y="1290">    │ └─┬ regex-cache@0.4.3 </tspan>
<tspan x="10" y="1306">    │   ├── is-equal-shallow@0.1.3 </tspan>
<tspan x="10" y="1322">    │   └── is-primitive@2.0.0 </tspan>
<tspan x="10" y="1338">    ├── object-assign@4.1.1 </tspan>
<tspan x="10" y="1354">    ├─┬ read-pkg-up@1.0.1 </tspan>
<tspan x="10" y="1370">    │ ├─┬ find-up@1.1.2 </tspan>
<tspan x="10" y="1386">    │ │ ├── path-exists@2.1.0 </tspan>
<tspan x="10" y="1402">    │ │ └─┬ pinkie-promise@2.0.1 </tspan>
<tspan x="10" y="1418">    │ │   └── pinkie@2.0.4 </tspan>
<tspan x="10" y="1434">    │ └─┬ read-pkg@1.1.0 </tspan>
<tspan x="10" y="1450">    │   ├─┬ load-json-file@1.1.0 </tspan>
<tspan x="10" y="1466">    │   │ ├── graceful-fs@4.1.11 </tspan>
<tspan x="10" y="1482">    │   │ ├─┬ parse-json@2.2.0 </tspan>
<tspan x="10" y="1498">    │   │ │ └─┬ error-ex@1.3.1 </tspan>
<tspan x="10" y="1514">    │   │ │   └── is-arrayish@0.2.1 </tspan>
<tspan x="10" y="1530">    │   │ ├── pify@2.3.0 </tspan>
<tspan x="10" y="1546">    │   │ └─┬ strip-bom@2.0.0 </tspan>
<tspan x="10" y="1562">    │   │   └── is-utf8@0.2.1 </tspan>
<tspan x="10" y="1578">    │   ├─┬ normalize-package-data@2.3.8 </tspan>
<tspan x="10" y="1594">    │   │ ├── hosted-git-info@2.4.2 </tspan>
<tspan x="10" y="1610">    │   │ ├─┬ is-builtin-module@1.0.0 </tspan>
<tspan x="10" y="1626">    │   │ │ └── builtin-modules@1.1.1 </tspan>
<tspan x="10" y="1642">    │   │ └─┬ validate-npm-package-license@3.0.1 </tspan>
<tspan x="10" y="1658">    │   │   ├─┬ spdx-correct@1.0.2 </tspan>
<tspan x="10" y="1674">    │   │   │ └── spdx-license-ids@1.2.2 </tspan>
<tspan x="10" y="1690">    │   │   └── spdx-expression-parse@1.0.4 </tspan>
<tspan x="10" y="1706">    │   └── path-type@1.1.0 </tspan>
<tspan x="10" y="1722">    └── require-main-filename@1.0.1</tspan>
</text>
</svg>
